STARTFONT 2.1
FONT -FontForge-Helvetica Neue-Book-R-Normal--24-240-75-75-P-121-ISO10646-1
SIZE 24 75 75
FONTBOUNDINGBOX 23 24 -1 -5
COMMENT "Generated by fontforge, http://fontforge.sourceforge.net"
COMMENT "Copyright (c) 1981, 1982, 1983, 1989 and 1993, Linotype Library GmbH or its affiliated Linotype-Hell companies. All rights reserved."
COMMENT ""
COMMENT "The digitally encoded machine readable software for producing the Typefaces licensed to you is now the property of Heidelberger Druckmaschinen AG and its licensors, and may not be reproduced, used, displayed, modified, disclosed or transferred without the express written approval of Heidelberger Druckmaschinen AG."
COMMENT ""
COMMENT "Copyright (c) 1988, 1990, 1993 Adobe Systems Incorporated. All Rights Reserved."
STARTPROPERTIES 39
FOUNDRY "FontForge"
FAMILY_NAME "Helvetica Neue"
WEIGHT_NAME "Book"
SLANT "R"
SETWIDTH_NAME "Normal"
ADD_STYLE_NAME ""
PIXEL_SIZE 24
POINT_SIZE 240
RESOLUTION_X 75
RESOLUTION_Y 75
SPACING "P"
AVERAGE_WIDTH 121
CHARSET_REGISTRY "ISO10646"
CHARSET_ENCODING "1"
FONTNAME_REGISTRY ""
CHARSET_COLLECTIONS "ISO8859-5 ISO10646-1"
FONT_NAME "HelveticaNeue"
FACE_NAME "Helvetica Neue"
COPYRIGHT "Copyright (c) 1981, 1982, 1983, 1989 and 1993, Linotype Library GmbH or its affiliated Linotype-Hell companies. All rights reserved."
FONT_VERSION "6.1d8e1"
FONT_ASCENT 19
FONT_DESCENT 5
UNDERLINE_POSITION -3
UNDERLINE_THICKNESS 2
X_HEIGHT 11
CAP_HEIGHT 16
RAW_ASCENT 800
RAW_DESCENT 200
NORM_SPACE 7
RELATIVE_WEIGHT 40
RELATIVE_SETWIDTH 50
SUPERSCRIPT_X 0
SUPERSCRIPT_Y 6
SUPERSCRIPT_SIZE 4
SUBSCRIPT_X 0
SUBSCRIPT_Y 6
SUBSCRIPT_SIZE 4
AVG_LOWERCASE_WIDTH 120
AVG_UPPERCASE_WIDTH 158
ENDPROPERTIES
CHARS 99
STARTCHAR controlBS
ENCODING 8
SWIDTH 0 0
DWIDTH 0 0
BBX 1 1 0 0
BITMAP
00
ENDCHAR
STARTCHAR controlHT
ENCODING 9
SWIDTH 278 0
DWIDTH 7 0
BBX 1 1 0 0
BITMAP
00
ENDCHAR
STARTCHAR controlCR
ENCODING 13
SWIDTH 278 0
DWIDTH 7 0
BBX 1 1 0 0
BITMAP
00
ENDCHAR
STARTCHAR controlGS
ENCODING 29
SWIDTH 0 0
DWIDTH 0 0
BBX 1 1 0 0
BITMAP
00
ENDCHAR
STARTCHAR space
ENCODING 32
SWIDTH 278 0
DWIDTH 7 0
BBX 1 1 0 0
BITMAP
00
ENDCHAR
STARTCHAR exclam
ENCODING 33
SWIDTH 259 0
DWIDTH 6 0
BBX 3 17 2 0
BITMAP
C0
C0
C0
C0
C0
C0
C0
C0
C0
C0
C0
C0
80
00
E0
E0
E0
ENDCHAR
STARTCHAR quotedbl
ENCODING 34
SWIDTH 426 0
DWIDTH 10 0
BBX 6 6 2 11
BITMAP
CC
CC
CC
CC
CC
CC
ENDCHAR
STARTCHAR numbersign
ENCODING 35
SWIDTH 556 0
DWIDTH 13 0
BBX 12 17 1 0
BITMAP
08C0
08C0
18C0
18C0
1880
FFF0
FFF0
1180
1180
3180
FFE0
FFE0
3100
3100
2300
2300
6300
ENDCHAR
STARTCHAR dollar
ENCODING 36
SWIDTH 556 0
DWIDTH 14 0
BBX 12 21 1 -2
BITMAP
0400
0400
1F80
37C0
64C0
64E0
6400
6400
7400
3E00
0FC0
07E0
0670
C430
C430
E430
74E0
3FC0
1F00
0400
0400
ENDCHAR
STARTCHAR percent
ENCODING 37
SWIDTH 1000 0
DWIDTH 24 0
BBX 20 18 2 -1
BITMAP
3C01C0
660380
C30300
C30600
C30C00
C30C00
C31800
663000
3C63C0
006660
00CC30
018C30
030C30
030C30
060C30
0C0660
1C03C0
380000
ENDCHAR
STARTCHAR ampersand
ENCODING 38
SWIDTH 630 0
DWIDTH 15 0
BBX 15 17 1 0
BITMAP
0F00
1F80
39C0
30C0
30C0
1980
1B80
0E00
3E00
6330
C1B0
C0F0
C0E0
C0F0
E1F8
7F9C
1F0E
ENDCHAR
STARTCHAR quotesingle
ENCODING 39
SWIDTH 278 0
DWIDTH 7 0
BBX 2 6 2 11
BITMAP
C0
C0
C0
C0
C0
C0
ENDCHAR
STARTCHAR parenleft
ENCODING 40
SWIDTH 259 0
DWIDTH 6 0
BBX 5 23 1 -5
BITMAP
18
10
30
20
60
60
40
C0
C0
C0
C0
C0
C0
C0
C0
C0
60
60
60
20
30
10
18
ENDCHAR
STARTCHAR parenright
ENCODING 41
SWIDTH 259 0
DWIDTH 6 0
BBX 5 23 0 -5
BITMAP
C0
40
60
20
30
30
30
18
18
18
18
18
18
18
18
18
30
30
30
20
60
40
C0
ENDCHAR
STARTCHAR asterisk
ENCODING 42
SWIDTH 352 0
DWIDTH 8 0
BBX 7 7 1 10
BITMAP
10
10
D6
7C
38
2C
44
ENDCHAR
STARTCHAR plus
ENCODING 43
SWIDTH 600 0
DWIDTH 14 0
BBX 12 12 1 0
BITMAP
0600
0600
0600
0600
0600
FFF0
FFF0
0600
0600
0600
0600
0600
ENDCHAR
STARTCHAR comma
ENCODING 44
SWIDTH 278 0
DWIDTH 7 0
BBX 3 7 2 -4
BITMAP
E0
E0
E0
60
60
C0
80
ENDCHAR
STARTCHAR hyphen
ENCODING 45
SWIDTH 389 0
DWIDTH 9 0
BBX 7 2 1 6
BITMAP
FE
FE
ENDCHAR
STARTCHAR period
ENCODING 46
SWIDTH 278 0
DWIDTH 7 0
BBX 3 3 2 0
BITMAP
E0
E0
E0
ENDCHAR
STARTCHAR slash
ENCODING 47
SWIDTH 333 0
DWIDTH 8 0
BBX 8 18 0 0
BITMAP
03
03
02
06
06
04
0C
08
18
18
10
30
20
60
60
40
C0
C0
ENDCHAR
STARTCHAR zero
ENCODING 48
SWIDTH 556 0
DWIDTH 13 0
BBX 11 17 1 0
BITMAP
1F00
3F80
71C0
60C0
C060
C060
C060
C060
C060
C060
C060
C060
C060
60C0
71C0
3F80
1F00
ENDCHAR
STARTCHAR one
ENCODING 49
SWIDTH 556 0
DWIDTH 13 0
BBX 6 17 3 0
BITMAP
0C
0C
3C
FC
FC
0C
0C
0C
0C
0C
0C
0C
0C
0C
0C
0C
0C
ENDCHAR
STARTCHAR two
ENCODING 50
SWIDTH 556 0
DWIDTH 13 0
BBX 11 17 1 0
BITMAP
1F00
3FC0
71C0
E060
C060
C060
0060
00C0
01C0
0300
0E00
1800
3000
6000
C000
FFE0
FFE0
ENDCHAR
STARTCHAR three
ENCODING 51
SWIDTH 556 0
DWIDTH 13 0
BBX 11 17 1 0
BITMAP
1F00
7F80
61C0
E0C0
C0C0
C0C0
0180
0F00
0FC0
01C0
00E0
C060
C060
E060
71C0
3FC0
1F00
ENDCHAR
STARTCHAR four
ENCODING 52
SWIDTH 556 0
DWIDTH 13 0
BBX 11 17 1 0
BITMAP
0180
0380
0380
0780
0D80
1980
1180
3180
6180
4180
C180
FFE0
FFE0
0180
0180
0180
0180
ENDCHAR
STARTCHAR five
ENCODING 53
SWIDTH 556 0
DWIDTH 13 0
BBX 11 17 1 0
BITMAP
3FC0
3FC0
2000
6000
6000
6000
6F00
7FC0
61C0
C0E0
0060
0060
C060
E0E0
71C0
7F80
1F00
ENDCHAR
STARTCHAR six
ENCODING 54
SWIDTH 556 0
DWIDTH 13 0
BBX 11 17 1 0
BITMAP
0F80
3FC0
70E0
6060
6000
C000
CF00
DFC0
F1C0
E0E0
C060
C060
C060
60E0
71C0
3F80
1F00
ENDCHAR
STARTCHAR seven
ENCODING 55
SWIDTH 556 0
DWIDTH 13 0
BBX 11 17 2 0
BITMAP
FFE0
FFE0
00C0
0180
0300
0300
0600
0600
0C00
0C00
1800
1800
1800
3800
3000
3000
3000
ENDCHAR
STARTCHAR eight
ENCODING 56
SWIDTH 556 0
DWIDTH 14 0
BBX 12 17 1 0
BITMAP
0F80
3FC0
70E0
6060
6060
6060
30C0
1F80
3FC0
70E0
C070
C030
C030
C030
70E0
7FC0
1F80
ENDCHAR
STARTCHAR nine
ENCODING 57
SWIDTH 556 0
DWIDTH 13 0
BBX 11 17 1 0
BITMAP
1F00
3F80
71C0
E0C0
C060
C060
C060
E0E0
71E0
7F60
1E60
0060
00C0
C0C0
E1C0
7F80
1F00
ENDCHAR
STARTCHAR colon
ENCODING 58
SWIDTH 278 0
DWIDTH 7 0
BBX 3 13 2 0
BITMAP
E0
E0
E0
00
00
00
00
00
00
00
E0
E0
E0
ENDCHAR
STARTCHAR semicolon
ENCODING 59
SWIDTH 278 0
DWIDTH 7 0
BBX 3 17 2 -4
BITMAP
E0
E0
E0
00
00
00
00
00
00
00
00
E0
E0
60
60
C0
80
ENDCHAR
STARTCHAR less
ENCODING 60
SWIDTH 600 0
DWIDTH 14 0
BBX 12 12 1 0
BITMAP
0010
0070
01C0
0F00
3C00
E000
E000
3C00
0F00
01C0
0070
0010
ENDCHAR
STARTCHAR equal
ENCODING 61
SWIDTH 600 0
DWIDTH 14 0
BBX 12 7 1 3
BITMAP
FFF0
FFF0
0000
0000
0000
FFF0
FFF0
ENDCHAR
STARTCHAR greater
ENCODING 62
SWIDTH 600 0
DWIDTH 14 0
BBX 12 12 1 0
BITMAP
8000
F000
3C00
0700
01C0
0070
0070
01C0
0700
3C00
F000
8000
ENDCHAR
STARTCHAR question
ENCODING 63
SWIDTH 556 0
DWIDTH 14 0
BBX 11 18 1 0
BITMAP
1F00
3FC0
70C0
E060
C060
C060
0060
00C0
0180
0700
0600
0C00
0C00
0C00
0000
0E00
0E00
0E00
ENDCHAR
STARTCHAR at
ENCODING 64
SWIDTH 800 0
DWIDTH 19 0
BBX 17 17 1 0
BITMAP
03F000
0C1C00
180600
31E300
67EF00
6E3980
CC1980
DC1980
D81180
D83180
D83300
7C7300
6FB600
373800
180300
0E0C00
03F000
ENDCHAR
STARTCHAR A
ENCODING 65
SWIDTH 648 0
DWIDTH 16 0
BBX 16 17 0 0
BITMAP
0380
03C0
03C0
06C0
0660
0C60
0C70
0C30
1830
1838
3FF8
3FFC
300C
700C
600E
E006
C007
ENDCHAR
STARTCHAR B
ENCODING 66
SWIDTH 685 0
DWIDTH 16 0
BBX 13 17 2 0
BITMAP
FFC0
FFE0
C070
C030
C030
C030
C060
FFC0
FFE0
C030
C018
C018
C018
C018
C030
FFF0
FFC0
ENDCHAR
STARTCHAR C
ENCODING 67
SWIDTH 722 0
DWIDTH 17 0
BBX 15 18 1 0
BITMAP
07E0
1FF8
383C
700C
600E
E006
C000
C000
C000
C000
C000
C006
E006
600E
701C
3838
1FF0
07E0
ENDCHAR
STARTCHAR D
ENCODING 68
SWIDTH 704 0
DWIDTH 17 0
BBX 14 17 2 0
BITMAP
FF80
FFE0
C070
C038
C018
C00C
C00C
C00C
C00C
C00C
C00C
C01C
C018
C038
C070
FFE0
FF80
ENDCHAR
STARTCHAR E
ENCODING 69
SWIDTH 611 0
DWIDTH 15 0
BBX 12 17 2 0
BITMAP
FFF0
FFF0
C000
C000
C000
C000
C000
FFE0
FFE0
C000
C000
C000
C000
C000
C000
FFF0
FFF0
ENDCHAR
STARTCHAR F
ENCODING 70
SWIDTH 574 0
DWIDTH 14 0
BBX 11 17 2 0
BITMAP
FFE0
FFE0
C000
C000
C000
C000
C000
FFC0
FFC0
C000
C000
C000
C000
C000
C000
C000
C000
ENDCHAR
STARTCHAR G
ENCODING 71
SWIDTH 759 0
DWIDTH 18 0
BBX 16 18 1 0
BITMAP
07F0
0FFC
3C1E
300E
6007
6003
C000
C000
C000
C07F
C07F
C003
6003
6007
3007
3C1F
1FFB
07E1
ENDCHAR
STARTCHAR H
ENCODING 72
SWIDTH 722 0
DWIDTH 17 0
BBX 13 17 2 0
BITMAP
C018
C018
C018
C018
C018
C018
C018
FFF8
FFF8
C018
C018
C018
C018
C018
C018
C018
C018
ENDCHAR
STARTCHAR I
ENCODING 73
SWIDTH 259 0
DWIDTH 6 0
BBX 2 17 2 0
BITMAP
C0
C0
C0
C0
C0
C0
C0
C0
C0
C0
C0
C0
C0
C0
C0
C0
C0
ENDCHAR
STARTCHAR J
ENCODING 74
SWIDTH 519 0
DWIDTH 12 0
BBX 9 17 1 0
BITMAP
0180
0180
0180
0180
0180
0180
0180
0180
0180
0180
0180
C180
C180
C180
E380
7F00
3E00
ENDCHAR
STARTCHAR K
ENCODING 75
SWIDTH 667 0
DWIDTH 16 0
BBX 14 17 2 0
BITMAP
C03C
C070
C0E0
C1C0
C380
C700
CE00
DE00
FF00
F300
E380
C1C0
C0E0
C060
C070
C038
C01C
ENDCHAR
STARTCHAR L
ENCODING 76
SWIDTH 556 0
DWIDTH 13 0
BBX 11 17 2 0
BITMAP
C000
C000
C000
C000
C000
C000
C000
C000
C000
C000
C000
C000
C000
C000
C000
FFE0
FFE0
ENDCHAR
STARTCHAR M
ENCODING 77
SWIDTH 871 0
DWIDTH 21 0
BBX 17 17 2 0
BITMAP
E00380
F00780
F00780
F00780
D80D80
D80D80
DC1D80
CC1980
CC1980
C63180
C63180
C63180
C36180
C36180
C1C180
C1C180
C1C180
ENDCHAR
STARTCHAR N
ENCODING 78
SWIDTH 722 0
DWIDTH 17 0
BBX 13 17 2 0
BITMAP
E018
E018
F018
F818
D818
DC18
CC18
C618
C718
C318
C198
C1D8
C0D8
C0F8
C078
C038
C038
ENDCHAR
STARTCHAR O
ENCODING 79
SWIDTH 760 0
DWIDTH 18 0
BBX 16 18 1 0
BITMAP
07E0
1FF8
3C3C
700E
6006
6006
C003
C003
C003
C003
C003
C003
6006
6006
700E
3C3C
1FF8
07E0
ENDCHAR
STARTCHAR P
ENCODING 80
SWIDTH 648 0
DWIDTH 16 0
BBX 13 17 2 0
BITMAP
FFC0
FFF0
C030
C018
C018
C018
C018
C030
FFF0
FFC0
C000
C000
C000
C000
C000
C000
C000
ENDCHAR
STARTCHAR Q
ENCODING 81
SWIDTH 760 0
DWIDTH 18 0
BBX 16 19 1 -1
BITMAP
07E0
1FF8
3C3C
700E
6006
6006
C003
C003
C003
C003
C003
C003
6006
6066
70FC
3C3C
1FFC
07E7
0002
ENDCHAR
STARTCHAR R
ENCODING 82
SWIDTH 685 0
DWIDTH 16 0
BBX 14 17 2 0
BITMAP
FFC0
FFF0
C038
C018
C018
C018
C018
C030
FFE0
FFE0
C070
C030
C038
C018
C018
C018
C01C
ENDCHAR
STARTCHAR S
ENCODING 83
SWIDTH 648 0
DWIDTH 16 0
BBX 14 18 1 0
BITMAP
1F80
7FE0
60E0
C070
C030
C030
E000
7C00
3FC0
03F0
0038
000C
C00C
C00C
600C
7838
3FF0
0FC0
ENDCHAR
STARTCHAR T
ENCODING 84
SWIDTH 574 0
DWIDTH 14 0
BBX 14 17 0 0
BITMAP
FFFC
FFFC
0300
0300
0300
0300
0300
0300
0300
0300
0300
0300
0300
0300
0300
0300
0300
ENDCHAR
STARTCHAR U
ENCODING 85
SWIDTH 722 0
DWIDTH 17 0
BBX 13 17 2 0
BITMAP
C018
C018
C018
C018
C018
C018
C018
C018
C018
C018
C018
C018
C018
E038
7070
3FE0
0FC0
ENDCHAR
STARTCHAR V
ENCODING 86
SWIDTH 611 0
DWIDTH 15 0
BBX 15 17 0 0
BITMAP
E00E
600C
601C
7018
3018
3038
3830
1830
1870
1C60
0C60
0CE0
0EC0
06C0
07C0
0780
0380
ENDCHAR
STARTCHAR W
ENCODING 87
SWIDTH 926 0
DWIDTH 22 0
BBX 22 17 0 0
BITMAP
E0300C
60781C
607818
607818
706C18
30CC30
30CC30
30CC30
388630
198660
198660
198660
0F0360
0F03C0
0F03C0
0E01C0
0601C0
ENDCHAR
STARTCHAR X
ENCODING 88
SWIDTH 611 0
DWIDTH 15 0
BBX 15 17 0 0
BITMAP
E01C
7018
3838
1870
1C60
0EE0
07C0
0780
0380
07C0
0EC0
0CE0
1C70
3830
3038
701C
E00E
ENDCHAR
STARTCHAR Y
ENCODING 89
SWIDTH 648 0
DWIDTH 16 0
BBX 16 17 0 0
BITMAP
E007
700E
381C
1818
1C38
0E30
0660
07E0
03C0
0180
0180
0180
0180
0180
0180
0180
0180
ENDCHAR
STARTCHAR Z
ENCODING 90
SWIDTH 611 0
DWIDTH 15 0
BBX 13 17 1 0
BITMAP
FFF8
FFF8
0030
0070
00E0
01C0
0180
0300
0700
0E00
1C00
3800
3000
6000
E000
FFF8
FFF8
ENDCHAR
STARTCHAR bracketleft
ENCODING 91
SWIDTH 259 0
DWIDTH 6 0
BBX 4 23 2 -5
BITMAP
F0
F0
C0
C0
C0
C0
C0
C0
C0
C0
C0
C0
C0
C0
C0
C0
C0
C0
C0
C0
C0
F0
F0
ENDCHAR
STARTCHAR backslash
ENCODING 92
SWIDTH 333 0
DWIDTH 8 0
BBX 8 18 0 0
BITMAP
C0
C0
40
60
60
20
30
10
18
18
08
0C
04
06
06
02
03
03
ENDCHAR
STARTCHAR bracketright
ENCODING 93
SWIDTH 259 0
DWIDTH 6 0
BBX 4 23 0 -5
BITMAP
F0
F0
30
30
30
30
30
30
30
30
30
30
30
30
30
30
30
30
30
30
30
F0
F0
ENDCHAR
STARTCHAR asciicircum
ENCODING 94
SWIDTH 600 0
DWIDTH 14 0
BBX 12 11 1 6
BITMAP
0600
0700
0F00
0980
1980
10C0
30C0
3060
6060
6030
C030
ENDCHAR
STARTCHAR underscore
ENCODING 95
SWIDTH 500 0
DWIDTH 12 0
BBX 12 1 0 -3
BITMAP
FFF0
ENDCHAR
STARTCHAR grave
ENCODING 96
SWIDTH 222 0
DWIDTH 5 0
BBX 5 4 -1 14
BITMAP
E0
30
30
18
ENDCHAR
STARTCHAR a
ENCODING 97
SWIDTH 537 0
DWIDTH 13 0
BBX 11 13 1 0
BITMAP
3F00
7F80
E1C0
C0C0
00C0
03C0
3EC0
60C0
C0C0
C0C0
E3C0
FFE0
3CE0
ENDCHAR
STARTCHAR b
ENCODING 98
SWIDTH 593 0
DWIDTH 14 0
BBX 11 17 2 0
BITMAP
C000
C000
C000
C000
DF00
FF80
F1C0
E0C0
C060
C060
C060
C060
C060
E0E0
F1C0
FF80
CF00
ENDCHAR
STARTCHAR c
ENCODING 99
SWIDTH 537 0
DWIDTH 13 0
BBX 11 13 1 0
BITMAP
1F00
3FC0
70E0
6060
C000
C000
C000
C000
C060
E060
70C0
3FC0
1F00
ENDCHAR
STARTCHAR d
ENCODING 100
SWIDTH 593 0
DWIDTH 14 0
BBX 12 17 1 0
BITMAP
0030
0030
0030
0030
1F30
3FF0
70F0
6070
C030
C030
C030
C030
C030
6070
70F0
3FF0
1F30
ENDCHAR
STARTCHAR e
ENCODING 101
SWIDTH 537 0
DWIDTH 13 0
BBX 11 13 1 0
BITMAP
1F00
3F80
71C0
60C0
C060
C060
FFE0
FFE0
C000
4060
70C0
3FC0
1F00
ENDCHAR
STARTCHAR f
ENCODING 102
SWIDTH 296 0
DWIDTH 7 0
BBX 7 17 0 0
BITMAP
1E
3E
30
30
FC
FC
30
30
30
30
30
30
30
30
30
30
30
ENDCHAR
STARTCHAR g
ENCODING 103
SWIDTH 574 0
DWIDTH 14 0
BBX 11 18 1 -5
BITMAP
1E60
3FE0
71E0
60E0
C060
C060
C060
C060
C060
E0E0
71E0
3FE0
1E60
0060
C0E0
E1C0
7FC0
1F00
ENDCHAR
STARTCHAR h
ENCODING 104
SWIDTH 556 0
DWIDTH 13 0
BBX 10 17 2 0
BITMAP
C000
C000
C000
C000
CF00
DF80
F1C0
E0C0
C0C0
C0C0
C0C0
C0C0
C0C0
C0C0
C0C0
C0C0
C0C0
ENDCHAR
STARTCHAR i
ENCODING 105
SWIDTH 222 0
DWIDTH 5 0
BBX 2 17 2 0
BITMAP
C0
C0
C0
00
00
C0
C0
C0
C0
C0
C0
C0
C0
C0
C0
C0
C0
ENDCHAR
STARTCHAR j
ENCODING 106
SWIDTH 222 0
DWIDTH 5 0
BBX 4 22 0 -5
BITMAP
30
30
30
00
00
30
30
30
30
30
30
30
30
30
30
30
30
30
30
30
F0
E0
ENDCHAR
STARTCHAR k
ENCODING 107
SWIDTH 519 0
DWIDTH 12 0
BBX 11 17 2 0
BITMAP
C000
C000
C000
C000
C000
C1C0
C300
C600
CC00
DC00
FC00
E600
C700
C300
C380
C1C0
C0E0
ENDCHAR
STARTCHAR l
ENCODING 108
SWIDTH 222 0
DWIDTH 5 0
BBX 2 17 2 0
BITMAP
C0
C0
C0
C0
C0
C0
C0
C0
C0
C0
C0
C0
C0
C0
C0
C0
C0
ENDCHAR
STARTCHAR m
ENCODING 109
SWIDTH 853 0
DWIDTH 22 0
BBX 18 13 2 0
BITMAP
CF0F00
DFBF80
F1E1C0
E0C0C0
C0C0C0
C0C0C0
C0C0C0
C0C0C0
C0C0C0
C0C0C0
C0C0C0
C0C0C0
C0C0C0
ENDCHAR
STARTCHAR n
ENCODING 110
SWIDTH 556 0
DWIDTH 13 0
BBX 10 13 2 0
BITMAP
CF00
DF80
F1C0
E0C0
C0C0
C0C0
C0C0
C0C0
C0C0
C0C0
C0C0
C0C0
C0C0
ENDCHAR
STARTCHAR o
ENCODING 111
SWIDTH 574 0
DWIDTH 14 0
BBX 12 13 1 0
BITMAP
1F80
3FC0
70E0
6060
C030
C030
C030
C030
C030
6060
70E0
3FC0
1F80
ENDCHAR
STARTCHAR p
ENCODING 112
SWIDTH 593 0
DWIDTH 14 0
BBX 11 18 2 -5
BITMAP
DF00
FF80
F1C0
E0C0
C060
C060
C060
C060
C060
E0E0
F1C0
FF80
CF00
C000
C000
C000
C000
C000
ENDCHAR
STARTCHAR q
ENCODING 113
SWIDTH 593 0
DWIDTH 14 0
BBX 12 18 1 -5
BITMAP
1F30
3FF0
70F0
6070
C030
C030
C030
C030
C030
6070
70F0
3FF0
1F30
0030
0030
0030
0030
0030
ENDCHAR
STARTCHAR r
ENCODING 114
SWIDTH 333 0
DWIDTH 8 0
BBX 6 13 1 0
BITMAP
CC
DC
F0
E0
C0
C0
C0
C0
C0
C0
C0
C0
C0
ENDCHAR
STARTCHAR s
ENCODING 115
SWIDTH 500 0
DWIDTH 12 0
BBX 10 13 1 0
BITMAP
3F00
7F80
E1C0
C0C0
C000
7800
1F00
03C0
00C0
C0C0
E1C0
7F80
3F00
ENDCHAR
STARTCHAR t
ENCODING 116
SWIDTH 315 0
DWIDTH 8 0
BBX 7 16 0 0
BITMAP
30
30
30
FE
FE
30
30
30
30
30
30
30
30
30
3E
1E
ENDCHAR
STARTCHAR u
ENCODING 117
SWIDTH 556 0
DWIDTH 13 0
BBX 10 12 2 0
BITMAP
C0C0
C0C0
C0C0
C0C0
C0C0
C0C0
C0C0
C0C0
C1C0
E3C0
7FC0
3CC0
ENDCHAR
STARTCHAR v
ENCODING 118
SWIDTH 500 0
DWIDTH 12 0
BBX 12 12 0 0
BITMAP
E070
6060
6060
30C0
30C0
38C0
1980
1980
0D00
0F00
0F00
0600
ENDCHAR
STARTCHAR w
ENCODING 119
SWIDTH 758 0
DWIDTH 18 0
BBX 18 12 0 0
BITMAP
E0C0C0
60E180
61E180
31E180
31A300
313300
1B3300
1B3200
1B1E00
0A1E00
0E1C00
0E0C00
ENDCHAR
STARTCHAR x
ENCODING 120
SWIDTH 518 0
DWIDTH 12 0
BBX 12 12 0 0
BITMAP
7070
30E0
39C0
1D80
0F00
0600
0F00
0F80
19C0
30C0
7060
E070
ENDCHAR
STARTCHAR y
ENCODING 121
SWIDTH 500 0
DWIDTH 12 0
BBX 12 17 0 -5
BITMAP
E070
6060
6060
30C0
30C0
38C0
1980
1980
0D00
0F00
0F00
0600
0600
0600
0C00
7C00
7800
ENDCHAR
STARTCHAR z
ENCODING 122
SWIDTH 480 0
DWIDTH 12 0
BBX 10 13 1 0
BITMAP
FFC0
FFC0
0180
0300
0600
0C00
1C00
1800
3000
6000
C000
FFC0
FFC0
ENDCHAR
STARTCHAR braceleft
ENCODING 123
SWIDTH 333 0
DWIDTH 8 0
BBX 6 22 1 -5
BITMAP
1C
30
30
30
30
30
30
30
30
70
E0
E0
70
30
30
30
30
30
30
30
30
1C
ENDCHAR
STARTCHAR bar
ENCODING 124
SWIDTH 222 0
DWIDTH 5 0
BBX 2 24 2 -5
BITMAP
C0
C0
C0
C0
C0
C0
C0
C0
C0
C0
C0
C0
C0
C0
C0
C0
C0
C0
C0
C0
C0
C0
C0
C0
ENDCHAR
STARTCHAR braceright
ENCODING 125
SWIDTH 333 0
DWIDTH 8 0
BBX 6 22 1 -5
BITMAP
E0
30
30
30
30
30
30
30
30
38
1C
1C
38
30
30
30
30
30
30
30
30
E0
ENDCHAR
STARTCHAR asciitilde
ENCODING 126
SWIDTH 600 0
DWIDTH 14 0
BBX 11 4 2 4
BITMAP
7040
CC60
8640
8380
ENDCHAR
ENDFONT
